<svg version="1" xmlns="http://www.w3.org/2000/svg" width="933.333" height="933.333" viewBox="0 0 700.000000 700.000000"><path d="M345.6 48.2C342.5 51 1.2 642 .4 646c-.5 2.2 0 3.4 1.9 5.4l2.6 2.6h690.2l2.6-2.6c1.8-1.8 2.4-3.3 2.1-5.2-.6-3.7-342.2-595.1-345.4-598C353 47 351 46 350 46c-1 0-3 1-4.4 2.2zM428 280.3c3.7 1.9 5.6 6.3 4 9.3-.7 1.3-24.7 25.4-53.4 53.6l-52.1 51.3 18 .6c9.9.3 20.3 1.1 23.1 1.7 38.3 8.2 73.6 40.1 85.8 77.5 11.3 34.5-.1 72-30.6 101.3-14.5 13.9-33.1 24.6-50.3 28.9-51.1 12.7-108.4-20.2-125.4-72-3.3-10.4-5.7-26.4-4.7-31.8 1.2-6.2 7.1-8.7 11.4-4.7 2.2 2.1 2.7 4.2 3.7 15.5.7 8.9 3.7 19 8.2 28 4.8 9.4 8.3 14.4 16 22.6 23.9 25.3 58.3 36.1 88.3 27.8 33.4-9.2 63-39.1 71.1-71.8 3.2-12.9 2.4-27.2-2.3-40.8-10.2-29.5-37-55.2-67.3-64.5-6.2-1.9-10.2-2.2-36.8-2.7l-29.8-.6-1.9-2.5c-4.3-5.6-5.7-3.9 51.2-60.2l53.3-52.7-75.3-.1c-84.6 0-81.1.3-81.2-7.6 0-3.3 2.1-5.9 5.5-6.7 1.1-.2 39.6-.5 85.5-.6 65.5 0 84 .2 86 1.2z"/></svg>