<?xml version="1.0" encoding="UTF-8" standalone="no"?>
<!-- Created with Inkscape (http://www.inkscape.org/) -->

<svg
   xmlns:dc="http://purl.org/dc/elements/1.1/"
   xmlns:cc="http://creativecommons.org/ns#"
   xmlns:rdf="http://www.w3.org/1999/02/22-rdf-syntax-ns#"
   xmlns:svg="http://www.w3.org/2000/svg"
   xmlns="http://www.w3.org/2000/svg"
   xmlns:sodipodi="http://sodipodi.sourceforge.net/DTD/sodipodi-0.dtd"
   xmlns:inkscape="http://www.inkscape.org/namespaces/inkscape"
   width="512"
   height="512"
   viewBox="0 0 135.46666 135.46667"
   id="svg2"
   version="1.1"
   inkscape:version="0.91+devel+osxmenu r12911"
   sodipodi:docname="pants.svg">
  <defs
     id="defs4" />
  <sodipodi:namedview
     id="base"
     pagecolor="#ffffff"
     bordercolor="#666666"
     borderopacity="1.0"
     inkscape:pageopacity="0.0"
     inkscape:pageshadow="2"
     inkscape:zoom="0.96484375"
     inkscape:cx="256"
     inkscape:cy="256"
     inkscape:document-units="px"
     inkscape:current-layer="layer1"
     showgrid="false"
     units="px" />
  <metadata
     id="metadata7">
    <rdf:RDF>
      <cc:Work
         rdf:about="">
        <dc:format>image/svg+xml</dc:format>
        <dc:type
           rdf:resource="http://purl.org/dc/dcmitype/StillImage" />
        <dc:title></dc:title>
      </cc:Work>
    </rdf:RDF>
  </metadata>
  <g
     inkscape:label="Laag 1"
     inkscape:groupmode="layer"
     id="layer1"
     transform="translate(0,-161.53331)">
    <path
       style="fill:#414141;fill-opacity:1;fill-rule:evenodd;stroke:none;stroke-width:0.26458332px;stroke-linecap:butt;stroke-linejoin:miter;stroke-opacity:1"
       d="m 109.95524,161.5333 c -19.292182,2.3374 -37.612771,6.86089 -60.66227,0.74433 4.572715,8.79917 1.3026,13.67693 0.372163,19.72453 -10.792675,16.74726 -28.511025,35.30662 -32.378022,42.42638 -7.273316,13.39131 -11.5890905,63.08931 -2.232969,62.15092 -0.248107,2.85323 -0.496213,5.70647 -0.744321,8.5597 4.093773,0.12404 8.187546,0.2481 12.281319,0.37216 0.372161,-2.48108 0.744321,-4.96215 1.116482,-7.44323 12.332414,-5.45434 22.403001,-9.20924 29.302896,-15.27046 10.287516,1.70581 18.897597,-0.18154 27.4263,-2.45658 1.19815,2.37112 11.2807,9.68193 14.33946,7.33463 4.232062,4.91786 4.013102,8.46201 11.923282,10.39241 0,2.85325 0,5.70648 0,8.55972 3.47352,0.12404 6.94701,0.2481 10.42053,0.37216 0.12404,-3.10135 0.2481,-6.20269 0.37215,-9.30403 12.09254,5.51923 -4.61825,-64.39882 -11.537,-108.67106 -1.06234,-5.83053 -0.9204,-11.66105 0,-17.49158 z"
       id="path4141"
       inkscape:connector-curvature="0"
       sodipodi:nodetypes="cccsccccccccccccc" />
    <path
       style="fill:#b11621;fill-opacity:1;fill-rule:evenodd;stroke:none;stroke-width:0.26458332px;stroke-linecap:butt;stroke-linejoin:miter;stroke-opacity:1"
       d="m 109.21093,188.70106 c -3.35304,5.07903 -8.56036,6.4495 -14.886452,5.58242 0.24669,9.93712 2.17918,17.85749 7.071062,24.9348 4.88557,1.85007 8.72771,-1.51695 12.65348,-4.46594 -0.96323,-8.68376 -2.90757,-17.36752 -4.83809,-26.05128 z"
       id="path4145"
       inkscape:connector-curvature="0"
       sodipodi:nodetypes="ccccc" />
    <path
       style="fill:#b11621;fill-opacity:1;fill-rule:evenodd;stroke:none;stroke-width:1.05833328;stroke-linecap:butt;stroke-linejoin:round;stroke-miterlimit:4;stroke-dasharray:none;stroke-opacity:1"
       d="m 43.710552,187.58458 c 3.012737,2.88867 8.530757,1.74711 11.536998,2.23296 -5.168092,8.48714 -6.896769,16.11443 -19.352381,26.42345 -4.457536,-0.45163 -11.756247,-0.83606 -11.536999,-4.09378 5.8745,-6.7468 11.560686,-13.02283 19.352382,-24.56263 z"
       id="path4147"
       inkscape:connector-curvature="0"
       sodipodi:nodetypes="ccccc" />
  </g>
</svg>
