<?xml version="1.0" encoding="UTF-8" standalone="no"?>
<!-- Created with Inkscape (http://www.inkscape.org/) -->

<svg
   xmlns:dc="http://purl.org/dc/elements/1.1/"
   xmlns:cc="http://creativecommons.org/ns#"
   xmlns:rdf="http://www.w3.org/1999/02/22-rdf-syntax-ns#"
   xmlns:svg="http://www.w3.org/2000/svg"
   xmlns="http://www.w3.org/2000/svg"
   xmlns:xlink="http://www.w3.org/1999/xlink"
   xmlns:sodipodi="http://sodipodi.sourceforge.net/DTD/sodipodi-0.dtd"
   xmlns:inkscape="http://www.inkscape.org/namespaces/inkscape"
   width="640"
   height="640"
   viewBox="0 0 169.33331 169.33333"
   id="svg2"
   version="1.1"
   inkscape:version="0.91+devel+osxmenu r12911"
   sodipodi:docname="preview-background.svg">
  <defs
     id="defs4">
    <linearGradient
       inkscape:collect="always"
       id="linearGradient5273">
      <stop
         style="stop-color:#000000;stop-opacity:0.49803922"
         offset="0"
         id="stop5275" />
      <stop
         style="stop-color:#000000;stop-opacity:0.0627451"
         offset="1"
         id="stop5277" />
    </linearGradient>
    <radialGradient
       inkscape:collect="always"
       xlink:href="#linearGradient5273"
       id="radialGradient5279"
       cx="153.9145"
       cy="66.224053"
       fx="153.9145"
       fy="66.224053"
       r="79.844625"
       gradientTransform="matrix(1,0,0,0.96165693,0,2.5392334)"
       gradientUnits="userSpaceOnUse" />
  </defs>
  <sodipodi:namedview
     id="base"
     pagecolor="#ffffff"
     bordercolor="#666666"
     borderopacity="1.0"
     inkscape:pageopacity="0.0"
     inkscape:pageshadow="2"
     inkscape:zoom="0.771875"
     inkscape:cx="320"
     inkscape:cy="308.98785"
     inkscape:document-units="px"
     inkscape:current-layer="layer1"
     showgrid="false"
     units="px"
     inkscape:snap-bbox="true"
     inkscape:bbox-paths="true"
     inkscape:bbox-nodes="true"
     inkscape:snap-bbox-edge-midpoints="true"
     inkscape:snap-bbox-midpoints="true"
     inkscape:object-paths="true"
     inkscape:snap-intersection-paths="true"
     inkscape:object-nodes="true"
     inkscape:snap-smooth-nodes="true"
     fit-margin-top="0"
     fit-margin-left="0"
     fit-margin-right="0"
     fit-margin-bottom="0">
    <inkscape:grid
       type="xygrid"
       id="grid4158"
       originx="-888.76543"
       originy="-624.09682" />
  </sodipodi:namedview>
  <metadata
     id="metadata7">
    <rdf:RDF>
      <cc:Work
         rdf:about="">
        <dc:format>image/svg+xml</dc:format>
        <dc:type
           rdf:resource="http://purl.org/dc/dcmitype/StillImage" />
        <dc:title />
      </cc:Work>
    </rdf:RDF>
  </metadata>
  <g
     inkscape:label="Laag 1"
     inkscape:groupmode="layer"
     id="layer1"
     transform="translate(-888.7656,496.43008)">
    <g
       id="g7576"
       transform="translate(819.51776,-477.98747)"
       style="fill:none;stroke:url(#radialGradient5279);stroke-width:3.17499971;stroke-miterlimit:4;stroke-dasharray:none;stroke-opacity:1">
      <path
         style="opacity:1;fill:none;fill-opacity:1;stroke:url(#radialGradient5279);stroke-width:3.17499971;stroke-linecap:round;stroke-linejoin:round;stroke-miterlimit:4;stroke-dasharray:none;stroke-dashoffset:0;stroke-opacity:1"
         d="m 167.33387,130.83636 -4.88808,8.46667 1.22215,2.11666 14.66474,0 1.22215,-2.11666 -4.88859,-8.46667 -7.33237,0 z"
         id="path7578"
         inkscape:connector-curvature="0" />
      <path
         id="path7580"
         d="m 167.3342,130.83636 -4.88831,-8.46653 -2.44417,8e-5 -7.33237,12.70003 1.22202,2.11675 9.77665,-3.1e-4 3.66618,-6.35002 z"
         style="opacity:1;fill:none;fill-opacity:1;stroke:url(#radialGradient5279);stroke-width:3.17499971;stroke-linecap:round;stroke-linejoin:round;stroke-miterlimit:4;stroke-dasharray:none;stroke-dashoffset:0;stroke-opacity:1"
         inkscape:connector-curvature="0" />
      <path
         id="path7582"
         d="m 167.3342,130.83636 9.77639,-1.3e-4 1.22202,-2.11675 -7.33238,-12.70003 -2.44416,-8e-5 -4.88806,8.46698 3.66619,6.35001 z"
         style="opacity:1;fill:none;fill-opacity:1;stroke:url(#radialGradient5279);stroke-width:3.17499971;stroke-linecap:round;stroke-linejoin:round;stroke-miterlimit:4;stroke-dasharray:none;stroke-dashoffset:0;stroke-opacity:1"
         inkscape:connector-curvature="0" />
      <path
         style="opacity:1;fill:none;fill-opacity:1;stroke:url(#radialGradient5279);stroke-width:3.17499971;stroke-linecap:round;stroke-linejoin:round;stroke-miterlimit:4;stroke-dasharray:none;stroke-dashoffset:0;stroke-opacity:1"
         d="m 177.1417,109.61625 -4.88808,8.46667 1.22215,2.11666 14.66474,0 1.22215,-2.11666 -4.88859,-8.46667 -7.33237,0 z"
         id="path7584"
         inkscape:connector-curvature="0" />
      <path
         id="path7586"
         d="m 177.14203,109.61625 -4.88831,-8.46653 -2.44417,8e-5 -7.33237,12.70003 1.22202,2.11675 9.77665,-3.1e-4 3.66618,-6.35002 z"
         style="opacity:1;fill:none;fill-opacity:1;stroke:url(#radialGradient5279);stroke-width:3.17499971;stroke-linecap:round;stroke-linejoin:round;stroke-miterlimit:4;stroke-dasharray:none;stroke-dashoffset:0;stroke-opacity:1"
         inkscape:connector-curvature="0" />
      <path
         id="path7588"
         d="m 177.14203,109.61625 9.77639,-1.3e-4 1.22202,-2.11675 -7.33238,-12.700032 -2.44416,-8e-5 -4.88806,8.466982 3.66619,6.35001 z"
         style="opacity:1;fill:none;fill-opacity:1;stroke:url(#radialGradient5279);stroke-width:3.17499971;stroke-linecap:round;stroke-linejoin:round;stroke-miterlimit:4;stroke-dasharray:none;stroke-dashoffset:0;stroke-opacity:1"
         inkscape:connector-curvature="0" />
      <path
         inkscape:connector-curvature="0"
         id="path7590"
         d="m 190.57933,128.69241 -4.88808,8.46667 1.22215,2.11666 14.66474,0 1.22215,-2.11666 -4.88859,-8.46667 -7.33237,0 z"
         style="opacity:1;fill:none;fill-opacity:1;stroke:url(#radialGradient5279);stroke-width:3.17499971;stroke-linecap:round;stroke-linejoin:round;stroke-miterlimit:4;stroke-dasharray:none;stroke-dashoffset:0;stroke-opacity:1" />
      <path
         inkscape:connector-curvature="0"
         style="opacity:1;fill:none;fill-opacity:1;stroke:url(#radialGradient5279);stroke-width:3.17499971;stroke-linecap:round;stroke-linejoin:round;stroke-miterlimit:4;stroke-dasharray:none;stroke-dashoffset:0;stroke-opacity:1"
         d="m 190.57966,128.69241 -4.88831,-8.46653 -2.44417,8e-5 -7.33237,12.70003 1.22202,2.11675 9.77665,-3.1e-4 3.66618,-6.35002 z"
         id="path7592" />
      <path
         inkscape:connector-curvature="0"
         style="opacity:1;fill:none;fill-opacity:1;stroke:url(#radialGradient5279);stroke-width:3.17499971;stroke-linecap:round;stroke-linejoin:round;stroke-miterlimit:4;stroke-dasharray:none;stroke-dashoffset:0;stroke-opacity:1"
         d="m 190.57966,128.69241 9.77639,-1.3e-4 1.22202,-2.11675 -7.33238,-12.70003 -2.44416,-8e-5 -4.88806,8.46698 3.66619,6.35001 z"
         id="path7594" />
      <path
         inkscape:connector-curvature="0"
         id="path7596"
         d="m 130.66089,113.90524 -4.88808,8.46667 1.22215,2.11666 14.66474,0 1.22215,-2.11666 -4.88859,-8.46667 -7.33237,0 z"
         style="opacity:1;fill:none;fill-opacity:1;stroke:url(#radialGradient5279);stroke-width:3.17499971;stroke-linecap:round;stroke-linejoin:round;stroke-miterlimit:4;stroke-dasharray:none;stroke-dashoffset:0;stroke-opacity:1" />
      <path
         inkscape:connector-curvature="0"
         style="opacity:1;fill:none;fill-opacity:1;stroke:url(#radialGradient5279);stroke-width:3.17499971;stroke-linecap:round;stroke-linejoin:round;stroke-miterlimit:4;stroke-dasharray:none;stroke-dashoffset:0;stroke-opacity:1"
         d="m 130.66122,113.90524 -4.88831,-8.46653 -2.44417,8e-5 -7.33237,12.70003 1.22202,2.11675 9.77665,-3.1e-4 3.66618,-6.35002 z"
         id="path7598" />
      <path
         inkscape:connector-curvature="0"
         style="opacity:1;fill:none;fill-opacity:1;stroke:url(#radialGradient5279);stroke-width:3.17499971;stroke-linecap:round;stroke-linejoin:round;stroke-miterlimit:4;stroke-dasharray:none;stroke-dashoffset:0;stroke-opacity:1"
         d="m 130.66122,113.90524 9.77639,-1.3e-4 1.22202,-2.11675 -7.33238,-12.700031 -2.44416,-8e-5 -4.88806,8.466981 3.66619,6.35001 z"
         id="path7600" />
      <path
         inkscape:connector-curvature="0"
         id="path7602"
         d="m 140.46872,92.685129 -4.88808,8.466671 1.22215,2.11666 14.66474,0 1.22215,-2.11666 -4.88859,-8.466671 -7.33237,0 z"
         style="opacity:1;fill:none;fill-opacity:1;stroke:url(#radialGradient5279);stroke-width:3.17499971;stroke-linecap:round;stroke-linejoin:round;stroke-miterlimit:4;stroke-dasharray:none;stroke-dashoffset:0;stroke-opacity:1" />
      <path
         inkscape:connector-curvature="0"
         style="opacity:1;fill:none;fill-opacity:1;stroke:url(#radialGradient5279);stroke-width:3.17499971;stroke-linecap:round;stroke-linejoin:round;stroke-miterlimit:4;stroke-dasharray:none;stroke-dashoffset:0;stroke-opacity:1"
         d="m 140.46905,92.685129 -4.88831,-8.46653 -2.44417,8e-5 -7.33237,12.70003 1.22202,2.11675 9.77665,-3.1e-4 3.66618,-6.35002 z"
         id="path7604" />
      <path
         inkscape:connector-curvature="0"
         style="opacity:1;fill:none;fill-opacity:1;stroke:url(#radialGradient5279);stroke-width:3.17499971;stroke-linecap:round;stroke-linejoin:round;stroke-miterlimit:4;stroke-dasharray:none;stroke-dashoffset:0;stroke-opacity:1"
         d="m 140.46905,92.685129 9.77639,-1.3e-4 1.22202,-2.11675 -7.33238,-12.700032 -2.44416,-8e-5 -4.88806,8.466982 3.66619,6.35001 z"
         id="path7606" />
      <path
         style="opacity:1;fill:none;fill-opacity:1;stroke:url(#radialGradient5279);stroke-width:3.17499971;stroke-linecap:round;stroke-linejoin:round;stroke-miterlimit:4;stroke-dasharray:none;stroke-dashoffset:0;stroke-opacity:1"
         d="m 153.90635,111.76129 -4.88808,8.46667 1.22215,2.11666 14.66474,0 1.22215,-2.11666 -4.88859,-8.46667 -7.33237,0 z"
         id="path7608"
         inkscape:connector-curvature="0" />
      <path
         id="path7610"
         d="m 153.90668,111.76129 -4.88831,-8.46653 -2.44417,8e-5 -7.33237,12.70003 1.22202,2.11675 9.77665,-3.1e-4 3.66618,-6.35002 z"
         style="opacity:1;fill:none;fill-opacity:1;stroke:url(#radialGradient5279);stroke-width:3.17499971;stroke-linecap:round;stroke-linejoin:round;stroke-miterlimit:4;stroke-dasharray:none;stroke-dashoffset:0;stroke-opacity:1"
         inkscape:connector-curvature="0" />
      <path
         id="path7612"
         d="m 153.90668,111.76129 9.77639,-1.3e-4 1.22202,-2.11675 -7.33238,-12.700031 -2.44416,-8e-5 -4.88806,8.466981 3.66619,6.35001 z"
         style="opacity:1;fill:none;fill-opacity:1;stroke:url(#radialGradient5279);stroke-width:3.17499971;stroke-linecap:round;stroke-linejoin:round;stroke-miterlimit:4;stroke-dasharray:none;stroke-dashoffset:0;stroke-opacity:1"
         inkscape:connector-curvature="0" />
      <path
         style="opacity:1;fill:none;fill-opacity:1;stroke:url(#radialGradient5279);stroke-width:3.17499971;stroke-linecap:round;stroke-linejoin:round;stroke-miterlimit:4;stroke-dasharray:none;stroke-dashoffset:0;stroke-opacity:1"
         d="m 163.67865,90.593969 -4.88808,8.46667 1.22215,2.116661 14.66474,0 1.22215,-2.116661 -4.88859,-8.46667 -7.33237,0 z"
         id="path7614"
         inkscape:connector-curvature="0" />
      <path
         id="path7616"
         d="m 163.67898,90.593969 -4.88831,-8.46653 -2.44417,8e-5 -7.33237,12.70003 1.22202,2.11675 9.77665,-3.1e-4 3.66618,-6.35002 z"
         style="opacity:1;fill:none;fill-opacity:1;stroke:url(#radialGradient5279);stroke-width:3.17499971;stroke-linecap:round;stroke-linejoin:round;stroke-miterlimit:4;stroke-dasharray:none;stroke-dashoffset:0;stroke-opacity:1"
         inkscape:connector-curvature="0" />
      <path
         id="path7618"
         d="m 163.67898,90.593969 9.77639,-1.3e-4 1.22202,-2.11675 -7.33238,-12.700031 -2.44416,-8e-5 -4.88806,8.466981 3.66619,6.35001 z"
         style="opacity:1;fill:none;fill-opacity:1;stroke:url(#radialGradient5279);stroke-width:3.17499971;stroke-linecap:round;stroke-linejoin:round;stroke-miterlimit:4;stroke-dasharray:none;stroke-dashoffset:0;stroke-opacity:1"
         inkscape:connector-curvature="0" />
      <path
         style="opacity:1;fill:none;fill-opacity:1;stroke:url(#radialGradient5279);stroke-width:3.17499971;stroke-linecap:round;stroke-linejoin:round;stroke-miterlimit:4;stroke-dasharray:none;stroke-dashoffset:0;stroke-opacity:1"
         d="m 173.48648,69.373858 -4.88808,8.466671 1.22215,2.11666 14.66474,0 1.22215,-2.11666 -4.88859,-8.466671 -7.33237,0 z"
         id="path7620"
         inkscape:connector-curvature="0" />
      <path
         id="path7622"
         d="m 173.48681,69.373858 -4.88831,-8.46653 -2.44417,8e-5 -7.33237,12.70003 1.22202,2.11675 9.77665,-3.1e-4 3.66618,-6.35002 z"
         style="opacity:1;fill:none;fill-opacity:1;stroke:url(#radialGradient5279);stroke-width:3.17499971;stroke-linecap:round;stroke-linejoin:round;stroke-miterlimit:4;stroke-dasharray:none;stroke-dashoffset:0;stroke-opacity:1"
         inkscape:connector-curvature="0" />
      <path
         id="path7624"
         d="m 173.48681,69.373858 9.77639,-1.3e-4 1.22202,-2.11675 -7.33238,-12.700032 -2.44416,-8e-5 -4.88806,8.466982 3.66619,6.35001 z"
         style="opacity:1;fill:none;fill-opacity:1;stroke:url(#radialGradient5279);stroke-width:3.17499971;stroke-linecap:round;stroke-linejoin:round;stroke-miterlimit:4;stroke-dasharray:none;stroke-dashoffset:0;stroke-opacity:1"
         inkscape:connector-curvature="0" />
      <path
         inkscape:connector-curvature="0"
         id="path7626"
         d="m 186.92411,88.450019 -4.88808,8.46667 1.22215,2.11666 14.66474,0 1.22215,-2.11666 -4.88859,-8.46667 -7.33237,0 z"
         style="opacity:1;fill:none;fill-opacity:1;stroke:url(#radialGradient5279);stroke-width:3.17499971;stroke-linecap:round;stroke-linejoin:round;stroke-miterlimit:4;stroke-dasharray:none;stroke-dashoffset:0;stroke-opacity:1" />
      <path
         inkscape:connector-curvature="0"
         style="opacity:1;fill:none;fill-opacity:1;stroke:url(#radialGradient5279);stroke-width:3.17499971;stroke-linecap:round;stroke-linejoin:round;stroke-miterlimit:4;stroke-dasharray:none;stroke-dashoffset:0;stroke-opacity:1"
         d="m 186.92444,88.450019 -4.88831,-8.46653 -2.44417,8e-5 -7.33237,12.70003 1.22202,2.11675 9.77665,-3.1e-4 3.66618,-6.35002 z"
         id="path7628" />
      <path
         inkscape:connector-curvature="0"
         style="opacity:1;fill:none;fill-opacity:1;stroke:url(#radialGradient5279);stroke-width:3.17499971;stroke-linecap:round;stroke-linejoin:round;stroke-miterlimit:4;stroke-dasharray:none;stroke-dashoffset:0;stroke-opacity:1"
         d="m 186.92444,88.450019 9.77639,-1.3e-4 1.22202,-2.11675 -7.33238,-12.700031 -2.44416,-8e-5 -4.88806,8.466981 3.66619,6.35001 z"
         id="path7630" />
      <path
         inkscape:connector-curvature="0"
         id="path7632"
         d="m 126.99485,73.688059 -4.88808,8.46667 1.22215,2.11666 14.66474,0 1.22215,-2.11666 -4.88859,-8.46667 -7.33237,0 z"
         style="opacity:1;fill:none;fill-opacity:1;stroke:url(#radialGradient5279);stroke-width:3.17499971;stroke-linecap:round;stroke-linejoin:round;stroke-miterlimit:4;stroke-dasharray:none;stroke-dashoffset:0;stroke-opacity:1" />
      <path
         inkscape:connector-curvature="0"
         style="opacity:1;fill:none;fill-opacity:1;stroke:url(#radialGradient5279);stroke-width:3.17499971;stroke-linecap:round;stroke-linejoin:round;stroke-miterlimit:4;stroke-dasharray:none;stroke-dashoffset:0;stroke-opacity:1"
         d="m 126.99518,73.688059 -4.88831,-8.46653 -2.44417,8e-5 -7.33237,12.70003 1.22202,2.11675 9.77665,-3.1e-4 3.66618,-6.35002 z"
         id="path7634" />
      <path
         inkscape:connector-curvature="0"
         style="opacity:1;fill:none;fill-opacity:1;stroke:url(#radialGradient5279);stroke-width:3.17499971;stroke-linecap:round;stroke-linejoin:round;stroke-miterlimit:4;stroke-dasharray:none;stroke-dashoffset:0;stroke-opacity:1"
         d="m 126.99518,73.688059 9.77639,-1.3e-4 1.22202,-2.11675 -7.33238,-12.70003 -2.44416,-8e-5 -4.88806,8.46698 3.66619,6.35001 z"
         id="path7636" />
      <path
         inkscape:connector-curvature="0"
         id="path7638"
         d="m 136.80268,52.467949 -4.88808,8.46667 1.22215,2.11666 14.66474,0 1.22215,-2.11666 -4.88859,-8.46667 -7.33237,0 z"
         style="opacity:1;fill:none;fill-opacity:1;stroke:url(#radialGradient5279);stroke-width:3.17499971;stroke-linecap:round;stroke-linejoin:round;stroke-miterlimit:4;stroke-dasharray:none;stroke-dashoffset:0;stroke-opacity:1" />
      <path
         inkscape:connector-curvature="0"
         style="opacity:1;fill:none;fill-opacity:1;stroke:url(#radialGradient5279);stroke-width:3.17499971;stroke-linecap:round;stroke-linejoin:round;stroke-miterlimit:4;stroke-dasharray:none;stroke-dashoffset:0;stroke-opacity:1"
         d="m 136.80301,52.467949 -4.88831,-8.46653 -2.44417,8e-5 -7.33237,12.70003 1.22202,2.11675 9.77665,-3.1e-4 3.66618,-6.35002 z"
         id="path7640" />
      <path
         inkscape:connector-curvature="0"
         style="opacity:1;fill:none;fill-opacity:1;stroke:url(#radialGradient5279);stroke-width:3.17499971;stroke-linecap:round;stroke-linejoin:round;stroke-miterlimit:4;stroke-dasharray:none;stroke-dashoffset:0;stroke-opacity:1"
         d="m 136.80301,52.467949 9.77639,-1.3e-4 1.22202,-2.11675 -7.33238,-12.700032 -2.44416,-8e-5 -4.88806,8.466982 3.66619,6.35001 z"
         id="path7642" />
      <path
         style="opacity:1;fill:none;fill-opacity:1;stroke:url(#radialGradient5279);stroke-width:3.17499971;stroke-linecap:round;stroke-linejoin:round;stroke-miterlimit:4;stroke-dasharray:none;stroke-dashoffset:0;stroke-opacity:1"
         d="m 150.24031,71.544109 -4.88808,8.46667 1.22215,2.11666 14.66474,0 1.22215,-2.11666 -4.88859,-8.46667 -7.33237,0 z"
         id="path7644"
         inkscape:connector-curvature="0" />
      <path
         id="path7646"
         d="m 150.24064,71.544109 -4.88831,-8.46653 -2.44417,8e-5 -7.33237,12.70003 1.22202,2.11675 9.77665,-3.1e-4 3.66618,-6.35002 z"
         style="opacity:1;fill:none;fill-opacity:1;stroke:url(#radialGradient5279);stroke-width:3.17499971;stroke-linecap:round;stroke-linejoin:round;stroke-miterlimit:4;stroke-dasharray:none;stroke-dashoffset:0;stroke-opacity:1"
         inkscape:connector-curvature="0" />
      <path
         id="path7648"
         d="m 150.24064,71.544109 9.77639,-1.3e-4 1.22202,-2.11675 -7.33238,-12.70003 -2.44416,-8e-5 -4.88806,8.46698 3.66619,6.35001 z"
         style="opacity:1;fill:none;fill-opacity:1;stroke:url(#radialGradient5279);stroke-width:3.17499971;stroke-linecap:round;stroke-linejoin:round;stroke-miterlimit:4;stroke-dasharray:none;stroke-dashoffset:0;stroke-opacity:1"
         inkscape:connector-curvature="0" />
      <path
         style="opacity:1;fill:none;fill-opacity:1;stroke:url(#radialGradient5279);stroke-width:3.17499971;stroke-linecap:round;stroke-linejoin:round;stroke-miterlimit:4;stroke-dasharray:none;stroke-dashoffset:0;stroke-opacity:1"
         d="m 90.32187,56.756939 -4.88808,8.46667 1.22215,2.11666 14.66474,0 1.22215,-2.11666 -4.88859,-8.46667 -7.33237,0 z"
         id="path7650"
         inkscape:connector-curvature="0" />
      <path
         id="path7652"
         d="m 90.3222,56.756939 -4.88831,-8.46653 -2.44417,8e-5 -7.33237,12.70003 1.22202,2.11675 9.77665,-3.1e-4 3.66618,-6.35002 z"
         style="opacity:1;fill:none;fill-opacity:1;stroke:url(#radialGradient5279);stroke-width:3.17499971;stroke-linecap:round;stroke-linejoin:round;stroke-miterlimit:4;stroke-dasharray:none;stroke-dashoffset:0;stroke-opacity:1"
         inkscape:connector-curvature="0" />
      <path
         id="path7654"
         d="m 90.3222,56.756939 9.77639,-1.3e-4 1.22202,-2.11675 -7.33238,-12.700031 -2.44416,-8e-5 -4.88806,8.466981 3.66619,6.35001 z"
         style="opacity:1;fill:none;fill-opacity:1;stroke:url(#radialGradient5279);stroke-width:3.17499971;stroke-linecap:round;stroke-linejoin:round;stroke-miterlimit:4;stroke-dasharray:none;stroke-dashoffset:0;stroke-opacity:1"
         inkscape:connector-curvature="0" />
      <path
         style="opacity:1;fill:none;fill-opacity:1;stroke:url(#radialGradient5279);stroke-width:3.17499971;stroke-linecap:round;stroke-linejoin:round;stroke-miterlimit:4;stroke-dasharray:none;stroke-dashoffset:0;stroke-opacity:1"
         d="m 100.1297,35.536828 -4.88808,8.466671 1.22215,2.11666 14.66474,0 1.22215,-2.11666 -4.88859,-8.466671 -7.33237,0 z"
         id="path7656"
         inkscape:connector-curvature="0" />
      <path
         id="path7658"
         d="m 100.13003,35.536828 -4.88831,-8.46653 -2.44417,8e-5 -7.33237,12.70003 1.22202,2.11675 9.77665,-3.1e-4 3.66618,-6.35002 z"
         style="opacity:1;fill:none;fill-opacity:1;stroke:url(#radialGradient5279);stroke-width:3.17499971;stroke-linecap:round;stroke-linejoin:round;stroke-miterlimit:4;stroke-dasharray:none;stroke-dashoffset:0;stroke-opacity:1"
         inkscape:connector-curvature="0" />
      <path
         id="path7660"
         d="m 100.13003,35.536828 9.77639,-1.3e-4 1.22202,-2.11675 -7.33238,-12.700032 -2.44416,-8e-5 -4.88806,8.466982 3.66619,6.35001 z"
         style="opacity:1;fill:none;fill-opacity:1;stroke:url(#radialGradient5279);stroke-width:3.17499971;stroke-linecap:round;stroke-linejoin:round;stroke-miterlimit:4;stroke-dasharray:none;stroke-dashoffset:0;stroke-opacity:1"
         inkscape:connector-curvature="0" />
      <path
         inkscape:connector-curvature="0"
         id="path7662"
         d="m 113.56733,54.612989 -4.88808,8.46667 1.22215,2.11666 14.66474,0 1.22215,-2.11666 -4.88859,-8.46667 -7.33237,0 z"
         style="opacity:1;fill:none;fill-opacity:1;stroke:url(#radialGradient5279);stroke-width:3.17499971;stroke-linecap:round;stroke-linejoin:round;stroke-miterlimit:4;stroke-dasharray:none;stroke-dashoffset:0;stroke-opacity:1" />
      <path
         inkscape:connector-curvature="0"
         style="opacity:1;fill:none;fill-opacity:1;stroke:url(#radialGradient5279);stroke-width:3.17499971;stroke-linecap:round;stroke-linejoin:round;stroke-miterlimit:4;stroke-dasharray:none;stroke-dashoffset:0;stroke-opacity:1"
         d="m 113.56766,54.612989 -4.88831,-8.46653 -2.44417,8e-5 -7.33237,12.70003 1.22202,2.11675 9.77665,-3.1e-4 3.66618,-6.35002 z"
         id="path7664" />
      <path
         inkscape:connector-curvature="0"
         style="opacity:1;fill:none;fill-opacity:1;stroke:url(#radialGradient5279);stroke-width:3.17499971;stroke-linecap:round;stroke-linejoin:round;stroke-miterlimit:4;stroke-dasharray:none;stroke-dashoffset:0;stroke-opacity:1"
         d="m 113.56766,54.612989 9.77639,-1.3e-4 1.22202,-2.11675 -7.33238,-12.700031 -2.44416,-8e-5 -4.88806,8.466981 3.66619,6.35001 z"
         id="path7666" />
      <path
         inkscape:connector-curvature="0"
         id="path7668"
         d="m 123.33963,33.445668 -4.88808,8.46667 1.22215,2.116661 14.66474,0 1.22215,-2.116661 -4.88859,-8.46667 -7.33237,0 z"
         style="opacity:1;fill:none;fill-opacity:1;stroke:url(#radialGradient5279);stroke-width:3.17499971;stroke-linecap:round;stroke-linejoin:round;stroke-miterlimit:4;stroke-dasharray:none;stroke-dashoffset:0;stroke-opacity:1" />
      <path
         inkscape:connector-curvature="0"
         style="opacity:1;fill:none;fill-opacity:1;stroke:url(#radialGradient5279);stroke-width:3.17499971;stroke-linecap:round;stroke-linejoin:round;stroke-miterlimit:4;stroke-dasharray:none;stroke-dashoffset:0;stroke-opacity:1"
         d="m 123.33996,33.445668 -4.88831,-8.46653 -2.44417,8e-5 -7.33237,12.70003 1.22202,2.11675 9.77665,-3.1e-4 3.66618,-6.35002 z"
         id="path7670" />
      <path
         inkscape:connector-curvature="0"
         style="opacity:1;fill:none;fill-opacity:1;stroke:url(#radialGradient5279);stroke-width:3.17499971;stroke-linecap:round;stroke-linejoin:round;stroke-miterlimit:4;stroke-dasharray:none;stroke-dashoffset:0;stroke-opacity:1"
         d="m 123.33996,33.445668 9.77639,-1.3e-4 1.22202,-2.11675 -7.33238,-12.700031 -2.44416,-8e-5 -4.88806,8.466981 3.66619,6.35001 z"
         id="path7672" />
      <path
         inkscape:connector-curvature="0"
         id="path7674"
         d="m 133.14746,12.225557 -4.88808,8.466671 1.22215,2.11666 14.66474,0 1.22215,-2.11666 -4.88859,-8.466671 -7.33237,0 z"
         style="opacity:1;fill:none;fill-opacity:1;stroke:url(#radialGradient5279);stroke-width:3.17499971;stroke-linecap:round;stroke-linejoin:round;stroke-miterlimit:4;stroke-dasharray:none;stroke-dashoffset:0;stroke-opacity:1" />
      <path
         inkscape:connector-curvature="0"
         style="opacity:1;fill:none;fill-opacity:1;stroke:url(#radialGradient5279);stroke-width:3.17499971;stroke-linecap:round;stroke-linejoin:round;stroke-miterlimit:4;stroke-dasharray:none;stroke-dashoffset:0;stroke-opacity:1"
         d="m 133.14779,12.225557 -4.88831,-8.46653 -2.44417,8e-5 -7.33237,12.70003 1.22202,2.11675 9.77665,-3.1e-4 3.66618,-6.35002 z"
         id="path7676" />
      <path
         inkscape:connector-curvature="0"
         style="opacity:1;fill:none;fill-opacity:1;stroke:url(#radialGradient5279);stroke-width:3.17499971;stroke-linecap:round;stroke-linejoin:round;stroke-miterlimit:4;stroke-dasharray:none;stroke-dashoffset:0;stroke-opacity:1"
         d="m 133.14779,12.225557 9.77639,-1.3e-4 1.22202,-2.11675 -7.33238,-12.700032 -2.44416,-8e-5 -4.88806,8.466982 3.66619,6.35001 z"
         id="path7678" />
      <path
         style="opacity:1;fill:none;fill-opacity:1;stroke:url(#radialGradient5279);stroke-width:3.17499971;stroke-linecap:round;stroke-linejoin:round;stroke-miterlimit:4;stroke-dasharray:none;stroke-dashoffset:0;stroke-opacity:1"
         d="m 146.58509,31.301718 -4.88808,8.46667 1.22215,2.11666 14.66474,0 1.22215,-2.11666 -4.88859,-8.46667 -7.33237,0 z"
         id="path7680"
         inkscape:connector-curvature="0" />
      <path
         id="path7682"
         d="m 146.58542,31.301718 -4.88831,-8.46653 -2.44417,8e-5 -7.33237,12.70003 1.22202,2.11675 9.77665,-3.1e-4 3.66618,-6.35002 z"
         style="opacity:1;fill:none;fill-opacity:1;stroke:url(#radialGradient5279);stroke-width:3.17499971;stroke-linecap:round;stroke-linejoin:round;stroke-miterlimit:4;stroke-dasharray:none;stroke-dashoffset:0;stroke-opacity:1"
         inkscape:connector-curvature="0" />
      <path
         id="path7684"
         d="m 146.58542,31.301718 9.77639,-1.3e-4 1.22202,-2.11675 -7.33238,-12.700031 -2.44416,-8e-5 -4.88806,8.466981 3.66619,6.35001 z"
         style="opacity:1;fill:none;fill-opacity:1;stroke:url(#radialGradient5279);stroke-width:3.17499971;stroke-linecap:round;stroke-linejoin:round;stroke-miterlimit:4;stroke-dasharray:none;stroke-dashoffset:0;stroke-opacity:1"
         inkscape:connector-curvature="0" />
      <path
         style="opacity:1;fill:none;fill-opacity:1;stroke:url(#radialGradient5279);stroke-width:3.17499971;stroke-linecap:round;stroke-linejoin:round;stroke-miterlimit:4;stroke-dasharray:none;stroke-dashoffset:0;stroke-opacity:1"
         d="m 196.70523,67.307909 -4.88808,8.46667 1.22215,2.11666 14.66474,0 1.22215,-2.11666 -4.88859,-8.46667 -7.33237,0 z"
         id="path7686"
         inkscape:connector-curvature="0" />
      <path
         id="path7688"
         d="m 196.70556,67.307909 -4.88831,-8.46653 -2.44417,8e-5 -7.33237,12.70003 1.22202,2.11675 9.77665,-3.1e-4 3.66618,-6.35002 z"
         style="opacity:1;fill:none;fill-opacity:1;stroke:url(#radialGradient5279);stroke-width:3.17499971;stroke-linecap:round;stroke-linejoin:round;stroke-miterlimit:4;stroke-dasharray:none;stroke-dashoffset:0;stroke-opacity:1"
         inkscape:connector-curvature="0" />
      <path
         id="path7690"
         d="m 196.70556,67.307909 9.77639,-1.3e-4 1.22202,-2.11675 -7.33238,-12.70003 -2.44416,-8e-5 -4.88806,8.46698 3.66619,6.35001 z"
         style="opacity:1;fill:none;fill-opacity:1;stroke:url(#radialGradient5279);stroke-width:3.17499971;stroke-linecap:round;stroke-linejoin:round;stroke-miterlimit:4;stroke-dasharray:none;stroke-dashoffset:0;stroke-opacity:1"
         inkscape:connector-curvature="0" />
      <path
         style="opacity:1;fill:none;fill-opacity:1;stroke:url(#radialGradient5279);stroke-width:3.17499971;stroke-linecap:round;stroke-linejoin:round;stroke-miterlimit:4;stroke-dasharray:none;stroke-dashoffset:0;stroke-opacity:1"
         d="m 206.51306,46.087799 -4.88808,8.46667 1.22215,2.11666 14.66474,0 1.22215,-2.11666 -4.88859,-8.46667 -7.33237,0 z"
         id="path7692"
         inkscape:connector-curvature="0" />
      <path
         id="path7694"
         d="m 206.51339,46.087799 -4.88831,-8.46653 -2.44417,8e-5 -7.33237,12.70003 1.22202,2.11675 9.77665,-3.1e-4 3.66618,-6.35002 z"
         style="opacity:1;fill:none;fill-opacity:1;stroke:url(#radialGradient5279);stroke-width:3.17499971;stroke-linecap:round;stroke-linejoin:round;stroke-miterlimit:4;stroke-dasharray:none;stroke-dashoffset:0;stroke-opacity:1"
         inkscape:connector-curvature="0" />
      <path
         id="path7696"
         d="m 206.51339,46.087799 9.77639,-1.3e-4 1.22202,-2.11675 -7.33238,-12.700032 -2.44416,-8e-5 -4.88806,8.466982 3.66619,6.35001 z"
         style="opacity:1;fill:none;fill-opacity:1;stroke:url(#radialGradient5279);stroke-width:3.17499971;stroke-linecap:round;stroke-linejoin:round;stroke-miterlimit:4;stroke-dasharray:none;stroke-dashoffset:0;stroke-opacity:1"
         inkscape:connector-curvature="0" />
      <path
         inkscape:connector-curvature="0"
         id="path7698"
         d="m 219.95069,65.163959 -4.88808,8.46667 1.22215,2.11666 14.66474,0 1.22215,-2.11666 -4.88859,-8.46667 -7.33237,0 z"
         style="opacity:1;fill:none;fill-opacity:1;stroke:url(#radialGradient5279);stroke-width:3.17499971;stroke-linecap:round;stroke-linejoin:round;stroke-miterlimit:4;stroke-dasharray:none;stroke-dashoffset:0;stroke-opacity:1" />
      <path
         inkscape:connector-curvature="0"
         style="opacity:1;fill:none;fill-opacity:1;stroke:url(#radialGradient5279);stroke-width:3.17499971;stroke-linecap:round;stroke-linejoin:round;stroke-miterlimit:4;stroke-dasharray:none;stroke-dashoffset:0;stroke-opacity:1"
         d="m 219.95102,65.163959 -4.88831,-8.46653 -2.44417,8e-5 -7.33237,12.70003 1.22202,2.11675 9.77665,-3.1e-4 3.66618,-6.35002 z"
         id="path7700" />
      <path
         inkscape:connector-curvature="0"
         style="opacity:1;fill:none;fill-opacity:1;stroke:url(#radialGradient5279);stroke-width:3.17499971;stroke-linecap:round;stroke-linejoin:round;stroke-miterlimit:4;stroke-dasharray:none;stroke-dashoffset:0;stroke-opacity:1"
         d="m 219.95102,65.163959 9.77639,-1.3e-4 1.22202,-2.11675 -7.33238,-12.70003 -2.44416,-8e-5 -4.88806,8.46698 3.66619,6.35001 z"
         id="path7702" />
      <path
         inkscape:connector-curvature="0"
         id="path7704"
         d="m 160.03225,50.376789 -4.88808,8.46667 1.22215,2.11666 14.66474,0 1.22215,-2.11666 -4.88859,-8.46667 -7.33237,0 z"
         style="opacity:1;fill:none;fill-opacity:1;stroke:url(#radialGradient5279);stroke-width:3.17499971;stroke-linecap:round;stroke-linejoin:round;stroke-miterlimit:4;stroke-dasharray:none;stroke-dashoffset:0;stroke-opacity:1" />
      <path
         inkscape:connector-curvature="0"
         style="opacity:1;fill:none;fill-opacity:1;stroke:url(#radialGradient5279);stroke-width:3.17499971;stroke-linecap:round;stroke-linejoin:round;stroke-miterlimit:4;stroke-dasharray:none;stroke-dashoffset:0;stroke-opacity:1"
         d="m 160.03258,50.376789 -4.88831,-8.46653 -2.44417,8e-5 -7.33237,12.70003 1.22202,2.11675 9.77665,-3.1e-4 3.66618,-6.35002 z"
         id="path7706" />
      <path
         inkscape:connector-curvature="0"
         style="opacity:1;fill:none;fill-opacity:1;stroke:url(#radialGradient5279);stroke-width:3.17499971;stroke-linecap:round;stroke-linejoin:round;stroke-miterlimit:4;stroke-dasharray:none;stroke-dashoffset:0;stroke-opacity:1"
         d="m 160.03258,50.376789 9.77639,-1.3e-4 1.22202,-2.11675 -7.33238,-12.700031 -2.44416,-8e-5 -4.88806,8.466981 3.66619,6.35001 z"
         id="path7708" />
      <path
         inkscape:connector-curvature="0"
         id="path7710"
         d="m 169.84008,29.156678 -4.88808,8.466671 1.22215,2.11666 14.66474,0 1.22215,-2.11666 -4.88859,-8.466671 -7.33237,0 z"
         style="opacity:1;fill:none;fill-opacity:1;stroke:url(#radialGradient5279);stroke-width:3.17499971;stroke-linecap:round;stroke-linejoin:round;stroke-miterlimit:4;stroke-dasharray:none;stroke-dashoffset:0;stroke-opacity:1" />
      <path
         inkscape:connector-curvature="0"
         style="opacity:1;fill:none;fill-opacity:1;stroke:url(#radialGradient5279);stroke-width:3.17499971;stroke-linecap:round;stroke-linejoin:round;stroke-miterlimit:4;stroke-dasharray:none;stroke-dashoffset:0;stroke-opacity:1"
         d="m 169.84041,29.156678 -4.88831,-8.46653 -2.44417,8e-5 -7.33237,12.70003 1.22202,2.11675 9.77665,-3.1e-4 3.66618,-6.35002 z"
         id="path7712" />
      <path
         inkscape:connector-curvature="0"
         style="opacity:1;fill:none;fill-opacity:1;stroke:url(#radialGradient5279);stroke-width:3.17499971;stroke-linecap:round;stroke-linejoin:round;stroke-miterlimit:4;stroke-dasharray:none;stroke-dashoffset:0;stroke-opacity:1"
         d="m 169.84041,29.156678 9.77639,-1.3e-4 1.22202,-2.11675 -7.33238,-12.700032 -2.44416,-8e-5 -4.88806,8.466982 3.66619,6.35001 z"
         id="path7714" />
      <path
         style="opacity:1;fill:none;fill-opacity:1;stroke:url(#radialGradient5279);stroke-width:3.17499971;stroke-linecap:round;stroke-linejoin:round;stroke-miterlimit:4;stroke-dasharray:none;stroke-dashoffset:0;stroke-opacity:1"
         d="m 183.27771,48.232839 -4.88808,8.46667 1.22215,2.11666 14.66474,0 1.22215,-2.11666 -4.88859,-8.46667 -7.33237,0 z"
         id="path7716"
         inkscape:connector-curvature="0" />
      <path
         id="path7718"
         d="m 183.27804,48.232839 -4.88831,-8.46653 -2.44417,8e-5 -7.33237,12.70003 1.22202,2.11675 9.77665,-3.1e-4 3.66618,-6.35002 z"
         style="opacity:1;fill:none;fill-opacity:1;stroke:url(#radialGradient5279);stroke-width:3.17499971;stroke-linecap:round;stroke-linejoin:round;stroke-miterlimit:4;stroke-dasharray:none;stroke-dashoffset:0;stroke-opacity:1"
         inkscape:connector-curvature="0" />
      <path
         id="path7720"
         d="m 183.27804,48.232839 9.77639,-1.3e-4 1.22202,-2.11675 -7.33238,-12.700031 -2.44416,-8e-5 -4.88806,8.466981 3.66619,6.35001 z"
         style="opacity:1;fill:none;fill-opacity:1;stroke:url(#radialGradient5279);stroke-width:3.17499971;stroke-linecap:round;stroke-linejoin:round;stroke-miterlimit:4;stroke-dasharray:none;stroke-dashoffset:0;stroke-opacity:1"
         inkscape:connector-curvature="0" />
      <path
         style="opacity:1;fill:none;fill-opacity:1;stroke:url(#radialGradient5279);stroke-width:3.17499971;stroke-linecap:round;stroke-linejoin:round;stroke-miterlimit:4;stroke-dasharray:none;stroke-dashoffset:0;stroke-opacity:1"
         d="m 193.05001,27.065518 -4.88808,8.46667 1.22215,2.116661 14.66474,0 1.22215,-2.116661 -4.88859,-8.46667 -7.33237,0 z"
         id="path7722"
         inkscape:connector-curvature="0" />
      <path
         id="path7724"
         d="m 193.05034,27.065518 -4.88831,-8.46653 -2.44417,8e-5 -7.33237,12.70003 1.22202,2.11675 9.77665,-3.1e-4 3.66618,-6.35002 z"
         style="opacity:1;fill:none;fill-opacity:1;stroke:url(#radialGradient5279);stroke-width:3.17499971;stroke-linecap:round;stroke-linejoin:round;stroke-miterlimit:4;stroke-dasharray:none;stroke-dashoffset:0;stroke-opacity:1"
         inkscape:connector-curvature="0" />
      <path
         id="path7726"
         d="m 193.05034,27.065518 9.77639,-1.3e-4 1.22202,-2.11675 -7.33238,-12.700031 -2.44416,-8e-5 -4.88806,8.466981 3.66619,6.35001 z"
         style="opacity:1;fill:none;fill-opacity:1;stroke:url(#radialGradient5279);stroke-width:3.17499971;stroke-linecap:round;stroke-linejoin:round;stroke-miterlimit:4;stroke-dasharray:none;stroke-dashoffset:0;stroke-opacity:1"
         inkscape:connector-curvature="0" />
      <path
         style="opacity:1;fill:none;fill-opacity:1;stroke:url(#radialGradient5279);stroke-width:3.17499971;stroke-linecap:round;stroke-linejoin:round;stroke-miterlimit:4;stroke-dasharray:none;stroke-dashoffset:0;stroke-opacity:1"
         d="m 202.85784,5.845407 -4.88808,8.466671 1.22215,2.11666 14.66474,0 1.22215,-2.11666 -4.88859,-8.466671 -7.33237,0 z"
         id="path7728"
         inkscape:connector-curvature="0" />
      <path
         id="path7730"
         d="m 202.85817,5.845407 -4.88831,-8.46653 -2.44417,8e-5 -7.33237,12.70003 1.22202,2.11675 9.77665,-3.1e-4 3.66618,-6.35002 z"
         style="opacity:1;fill:none;fill-opacity:1;stroke:url(#radialGradient5279);stroke-width:3.17499971;stroke-linecap:round;stroke-linejoin:round;stroke-miterlimit:4;stroke-dasharray:none;stroke-dashoffset:0;stroke-opacity:1"
         inkscape:connector-curvature="0" />
      <path
         id="path7732"
         d="m 202.85817,5.845407 9.77639,-1.3e-4 1.22202,-2.11675 -7.33238,-12.700032 -2.44416,-8e-5 -4.88806,8.466982 3.66619,6.35001 z"
         style="opacity:1;fill:none;fill-opacity:1;stroke:url(#radialGradient5279);stroke-width:3.17499971;stroke-linecap:round;stroke-linejoin:round;stroke-miterlimit:4;stroke-dasharray:none;stroke-dashoffset:0;stroke-opacity:1"
         inkscape:connector-curvature="0" />
      <path
         inkscape:connector-curvature="0"
         id="path7734"
         d="m 216.29547,24.921568 -4.88808,8.46667 1.22215,2.11666 14.66474,0 1.22215,-2.11666 -4.88859,-8.46667 -7.33237,0 z"
         style="opacity:1;fill:none;fill-opacity:1;stroke:url(#radialGradient5279);stroke-width:3.17499971;stroke-linecap:round;stroke-linejoin:round;stroke-miterlimit:4;stroke-dasharray:none;stroke-dashoffset:0;stroke-opacity:1" />
      <path
         inkscape:connector-curvature="0"
         style="opacity:1;fill:none;fill-opacity:1;stroke:url(#radialGradient5279);stroke-width:3.17499971;stroke-linecap:round;stroke-linejoin:round;stroke-miterlimit:4;stroke-dasharray:none;stroke-dashoffset:0;stroke-opacity:1"
         d="m 216.2958,24.921568 -4.88831,-8.46653 -2.44417,8e-5 -7.33237,12.70003 1.22202,2.11675 9.77665,-3.1e-4 3.66618,-6.35002 z"
         id="path7736" />
      <path
         inkscape:connector-curvature="0"
         style="opacity:1;fill:none;fill-opacity:1;stroke:url(#radialGradient5279);stroke-width:3.17499971;stroke-linecap:round;stroke-linejoin:round;stroke-miterlimit:4;stroke-dasharray:none;stroke-dashoffset:0;stroke-opacity:1"
         d="m 216.2958,24.921568 9.77639,-1.3e-4 1.22202,-2.11675 -7.33238,-12.700031 -2.44416,-8e-5 -4.88806,8.466981 3.66619,6.35001 z"
         id="path7738" />
    </g>
  </g>
</svg>
